<mxfile host="app.diagrams.net" modified="2021-09-08T04:52:06.971Z" agent="5.0 (Windows NT 6.1; Win64; x64) AppleWebKit/537.36 (KHTML, like Gecko) Chrome/93.0.4577.63 Safari/537.36" etag="gUPWKoufpBEnljSbavoi" version="15.0.4" type="github">
  <diagram id="GQd56cVxhgZU0aJjjBYL" name="第 1 页">
    <mxGraphModel dx="1102" dy="582" grid="1" gridSize="10" guides="1" tooltips="1" connect="1" arrows="1" fold="1" page="1" pageScale="1" pageWidth="827" pageHeight="1169" math="0" shadow="0">
      <root>
        <mxCell id="0" />
        <mxCell id="1" parent="0" />
        <mxCell id="3gH9Q7_uaoJ5qEohVJGO-1" value="请求 A" style="rounded=1;whiteSpace=wrap;html=1;fontSize=16;fillColor=#ffe6cc;strokeColor=#d79b00;" vertex="1" parent="1">
          <mxGeometry x="70" y="150" width="96.33802816901407" height="81.81818181818183" as="geometry" />
        </mxCell>
        <mxCell id="3gH9Q7_uaoJ5qEohVJGO-2" value="请求 B" style="rounded=1;whiteSpace=wrap;html=1;fontSize=16;fillColor=#f8cecc;strokeColor=#b85450;" vertex="1" parent="1">
          <mxGeometry x="206.4788732394366" y="150" width="96.33802816901407" height="81.81818181818183" as="geometry" />
        </mxCell>
        <mxCell id="3gH9Q7_uaoJ5qEohVJGO-3" value="缓存" style="rounded=1;whiteSpace=wrap;html=1;fontSize=16;fillColor=#cce5ff;strokeColor=#36393d;" vertex="1" parent="1">
          <mxGeometry x="345.7676056338028" y="150" width="96.33802816901407" height="81.81818181818183" as="geometry" />
        </mxCell>
        <mxCell id="3gH9Q7_uaoJ5qEohVJGO-4" value="数据库" style="rounded=1;whiteSpace=wrap;html=1;fontSize=16;fillColor=#ffff88;strokeColor=#36393d;" vertex="1" parent="1">
          <mxGeometry x="487.46478873239437" y="150" width="96.33802816901407" height="81.81818181818183" as="geometry" />
        </mxCell>
        <mxCell id="3gH9Q7_uaoJ5qEohVJGO-5" value="" style="endArrow=none;html=1;fontSize=16;entryX=0.5;entryY=1;entryDx=0;entryDy=0;dashed=1;" edge="1" parent="1" target="3gH9Q7_uaoJ5qEohVJGO-1">
          <mxGeometry x="70" y="150" width="50" height="50" as="geometry">
            <mxPoint x="118" y="560" as="sourcePoint" />
            <mxPoint x="150.28169014084506" y="272.72727272727275" as="targetPoint" />
          </mxGeometry>
        </mxCell>
        <mxCell id="3gH9Q7_uaoJ5qEohVJGO-6" value="" style="endArrow=none;html=1;fontSize=16;entryX=0.5;entryY=1;entryDx=0;entryDy=0;dashed=1;" edge="1" parent="1">
          <mxGeometry x="70" y="150" width="50" height="50" as="geometry">
            <mxPoint x="254" y="560" as="sourcePoint" />
            <mxPoint x="254.24647887323954" y="231.81818181818176" as="targetPoint" />
          </mxGeometry>
        </mxCell>
        <mxCell id="3gH9Q7_uaoJ5qEohVJGO-7" value="" style="endArrow=none;html=1;fontSize=16;entryX=0.5;entryY=1;entryDx=0;entryDy=0;dashed=1;" edge="1" parent="1">
          <mxGeometry x="70" y="150" width="50" height="50" as="geometry">
            <mxPoint x="394" y="560" as="sourcePoint" />
            <mxPoint x="393.5352112676055" y="231.81818181818176" as="targetPoint" />
          </mxGeometry>
        </mxCell>
        <mxCell id="3gH9Q7_uaoJ5qEohVJGO-8" value="" style="endArrow=none;html=1;fontSize=16;entryX=0.5;entryY=1;entryDx=0;entryDy=0;dashed=1;" edge="1" parent="1">
          <mxGeometry x="70" y="150" width="50" height="50" as="geometry">
            <mxPoint x="535" y="560" as="sourcePoint" />
            <mxPoint x="535.2323943661972" y="231.81818181818176" as="targetPoint" />
          </mxGeometry>
        </mxCell>
        <mxCell id="3gH9Q7_uaoJ5qEohVJGO-9" value="" style="endArrow=classic;html=1;fontSize=16;fillColor=#ffcd28;strokeColor=#d79b00;gradientColor=#ffa500;strokeWidth=2;" edge="1" parent="1">
          <mxGeometry x="65.56" y="320" width="50" height="50" as="geometry">
            <mxPoint x="113.72901408450713" y="470" as="sourcePoint" />
            <mxPoint x="395.56" y="470" as="targetPoint" />
          </mxGeometry>
        </mxCell>
        <mxCell id="3gH9Q7_uaoJ5qEohVJGO-10" value="缓存未命中" style="text;html=1;align=center;verticalAlign=middle;resizable=0;points=[];autosize=1;fillColor=#fff2cc;fontSize=16;" vertex="1" parent="1">
          <mxGeometry x="414.0019718309859" y="300.00363636363636" width="100" height="20" as="geometry" />
        </mxCell>
        <mxCell id="3gH9Q7_uaoJ5qEohVJGO-12" value="" style="endArrow=classic;html=1;fontSize=16;strokeWidth=2;gradientColor=#ffa500;fillColor=#ffcd28;strokeColor=#d79b00;" edge="1" parent="1">
          <mxGeometry x="70" y="-14.549999999999983" width="50" height="50" as="geometry">
            <mxPoint x="118.16901408450713" y="339.99545454545466" as="sourcePoint" />
            <mxPoint x="530" y="340.36" as="targetPoint" />
          </mxGeometry>
        </mxCell>
        <mxCell id="3gH9Q7_uaoJ5qEohVJGO-13" value="更新数据库为 20" style="text;html=1;align=center;verticalAlign=middle;resizable=0;points=[];autosize=1;fillColor=#fff2cc;fontSize=16;strokeWidth=2;" vertex="1" parent="1">
          <mxGeometry x="540.0049295774647" y="329.9990909090909" width="130" height="20" as="geometry" />
        </mxCell>
        <mxCell id="3gH9Q7_uaoJ5qEohVJGO-17" value="" style="endArrow=classic;html=1;fontSize=16;strokeWidth=2;gradientColor=#ea6b66;fillColor=#f8cecc;strokeColor=#b85450;" edge="1" parent="1">
          <mxGeometry x="69.28999999999999" y="162" width="50" height="50" as="geometry">
            <mxPoint x="253.93788732394367" y="380.18181818181824" as="sourcePoint" />
            <mxPoint x="533.94" y="380" as="targetPoint" />
          </mxGeometry>
        </mxCell>
        <mxCell id="3gH9Q7_uaoJ5qEohVJGO-18" value="更新数据库为 21" style="text;html=1;align=center;verticalAlign=middle;resizable=0;points=[];autosize=1;strokeColor=#b85450;fillColor=#f8cecc;fontSize=16;" vertex="1" parent="1">
          <mxGeometry x="540" y="370" width="130" height="20" as="geometry" />
        </mxCell>
        <mxCell id="3gH9Q7_uaoJ5qEohVJGO-19" value="" style="endArrow=classic;html=1;fontSize=16;strokeWidth=2;gradientColor=#ea6b66;fillColor=#f8cecc;strokeColor=#b85450;" edge="1" parent="1">
          <mxGeometry x="70" y="201" width="50" height="50" as="geometry">
            <mxPoint x="254.64788732394368" y="419.18181818181824" as="sourcePoint" />
            <mxPoint x="390" y="419" as="targetPoint" />
          </mxGeometry>
        </mxCell>
        <mxCell id="3gH9Q7_uaoJ5qEohVJGO-20" value="删除缓存" style="text;html=1;align=center;verticalAlign=middle;resizable=0;points=[];autosize=1;strokeColor=#b85450;fillColor=#f8cecc;fontSize=16;" vertex="1" parent="1">
          <mxGeometry x="410" y="410" width="80" height="20" as="geometry" />
        </mxCell>
        <mxCell id="3gH9Q7_uaoJ5qEohVJGO-21" value="" style="endArrow=classic;html=1;fontSize=16;fillColor=#ffcd28;strokeColor=#d79b00;gradientColor=#ffa500;strokeWidth=2;" edge="1" parent="1">
          <mxGeometry x="71.83" y="160" width="50" height="50" as="geometry">
            <mxPoint x="119.99901408450712" y="310" as="sourcePoint" />
            <mxPoint x="401.83" y="310" as="targetPoint" />
          </mxGeometry>
        </mxCell>
        <mxCell id="3gH9Q7_uaoJ5qEohVJGO-22" value="缓存更新为 20" style="text;html=1;align=center;verticalAlign=middle;resizable=0;points=[];autosize=1;fillColor=#fff2cc;fontSize=16;" vertex="1" parent="1">
          <mxGeometry x="404.0019718309859" y="460.00363636363636" width="120" height="20" as="geometry" />
        </mxCell>
      </root>
    </mxGraphModel>
  </diagram>
</mxfile>
